# Blender 4.1.0
# www.blender.org
mtllib drive.mtl
o base
v 0.000000 0.000005 226.755951
v 0.000000 12.511189 297.617188
v 0.000000 0.000009 368.478394
v 0.000000 -12.511174 297.617188
v -143.917252 0.000005 218.593292
v -181.029861 10.772549 274.962280
v -218.142014 0.000008 331.331543
v -181.029861 -10.772535 274.962280
v -294.082397 0.000004 185.019241
v -334.499176 6.349221 210.447098
v -374.915955 0.000006 235.874939
v -334.499176 -6.349209 210.447098
v -437.044098 0.000002 113.893280
v -396.756622 0.000002 91.106575
v -422.008636 0.000002 98.689575
v 0.000000 0.000005 226.755951
v 0.000000 12.511189 297.617188
v 0.000000 0.000009 368.478394
v 0.000000 -12.511174 297.617188
v 143.917252 0.000005 218.593292
v 181.029861 10.772549 274.962280
v 218.142014 0.000008 331.331543
v 181.029861 -10.772535 274.962280
v 294.082397 0.000004 185.019241
v 334.499176 6.349221 210.447098
v 374.915955 0.000006 235.874939
v 334.499176 -6.349209 210.447098
v 437.044098 0.000002 113.893280
v 396.756622 0.000002 91.106575
v 422.008636 0.000002 98.689575
v 143.917252 0.000005 218.593292
v 181.029861 10.772549 274.962280
v 218.142014 0.000008 331.331543
v 181.029861 -10.772535 274.962280
v 294.082397 0.000004 185.019241
v 334.499176 6.349221 210.447098
v 374.915955 0.000006 235.874939
v 334.499176 -6.349209 210.447098
v 437.044098 0.000002 113.893280
v 396.756622 0.000002 91.106575
v 422.008636 0.000002 98.689575
v -143.917252 0.000005 218.593292
v -181.029861 10.772549 274.962280
v -218.142014 0.000008 331.331543
v -181.029861 -10.772535 274.962280
v -294.082397 0.000004 185.019241
v -334.499176 6.349221 210.447098
v -374.915955 0.000006 235.874939
v -334.499176 -6.349209 210.447098
v -437.044098 0.000002 113.893280
v -396.756622 0.000002 91.106575
v -422.008636 0.000002 98.689575
vn 0.0198 0.9848 -0.1725
vn -0.0164 0.9997 -0.0161
vn -0.0000 1.0000 -0.0030
vn -0.0000 0.9848 -0.1739
vn -0.0000 1.0000 -0.0029
vn -0.0473 0.9861 0.1590
vn -0.0000 0.9848 0.1739
vn -0.0164 0.9997 -0.0160
vn -0.0473 -0.9861 0.1590
vn -0.0164 -0.9997 -0.0160
vn -0.0000 -1.0000 -0.0029
vn -0.0000 -0.9848 0.1739
vn 0.0199 -0.9848 -0.1724
vn -0.0000 -0.9848 -0.1739
vn -0.0164 -0.9997 -0.0161
vn 0.0198 -0.9848 -0.1725
vn -0.0000 -1.0000 -0.0030
vn 0.0403 0.9927 -0.1139
vn -0.0208 0.9994 -0.0293
vn 0.0199 0.9848 -0.1725
vn -0.0931 0.9901 0.1054
vn -0.0931 -0.9901 0.1054
vn -0.0208 -0.9994 -0.0293
vn 0.0403 -0.9927 -0.1139
vn 0.0199 -0.9848 -0.1725
vn 0.0156 -0.9986 -0.0497
vn -0.0000 -1.0000 -0.0000
vn -0.0743 -0.9972 0.0133
vn -0.0931 -0.9901 0.1055
vn -0.0743 -0.9971 0.0133
vn 0.0156 0.9986 -0.0497
vn -0.0000 1.0000 -0.0000
vn -0.0743 0.9971 0.0133
vn -0.0931 0.9901 0.1055
vn -0.0743 0.9971 0.0134
vn 0.0164 0.9997 -0.0161
vn -0.0198 0.9848 -0.1725
vn -0.0199 0.9848 -0.1724
vn 0.0473 0.9861 0.1590
vn 0.0164 0.9997 -0.0160
vn 0.0164 -0.9997 -0.0160
vn 0.0473 -0.9861 0.1590
vn -0.0198 -0.9848 -0.1725
vn 0.0164 -0.9997 -0.0161
vn -0.0199 -0.9848 -0.1725
vn 0.0208 0.9994 -0.0293
vn -0.0403 0.9927 -0.1139
vn -0.0199 0.9848 -0.1725
vn 0.0931 0.9901 0.1054
vn 0.0208 -0.9994 -0.0293
vn 0.0931 -0.9901 0.1054
vn -0.0403 -0.9927 -0.1139
vn -0.0156 -0.9986 -0.0497
vn 0.0743 -0.9971 0.0133
vn 0.0931 -0.9901 0.1055
vn 0.0743 -0.9971 0.0134
vn -0.0156 0.9986 -0.0497
vn 0.0743 0.9971 0.0133
vn 0.0931 0.9901 0.1055
vt 0.485330 0.306890
vt 0.482820 0.453080
vt 0.675020 0.454150
vt 0.675020 0.304420
vt 0.479010 0.599820
vt 0.675020 0.603870
vt 0.298710 0.341250
vt 0.290620 0.452000
vt 0.276490 0.564730
vt 0.086310 0.416400
vt 0.110400 0.326640
vt 0.069290 0.507390
s 0
f 5/1/1 6/2/2 2/3/3
f 1/4/4 5/1/1 2/3/5
f 7/5/6 3/6/7 2/3/5
f 6/2/8 7/5/6 2/3/5
f 7/5/9 8/2/10 4/3/11
f 3/6/12 7/5/9 4/3/11
f 5/1/13 1/4/14 4/3/11
f 8/2/15 5/1/16 4/3/17
f 9/7/18 10/8/19 6/2/8
f 5/1/20 9/7/18 6/2/8
f 11/9/21 7/5/6 6/2/8
f 10/8/19 11/9/21 6/2/8
f 11/9/22 12/8/23 8/2/10
f 7/5/9 11/9/22 8/2/10
f 9/7/24 5/1/25 8/2/10
f 12/8/23 9/7/24 8/2/10
f 9/7/24 12/8/23 15/10/26
f 14/11/27 9/7/24 15/10/26
f 13/12/28 15/10/26 12/8/23
f 11/9/29 13/12/30 12/8/23
f 15/10/31 10/8/19 9/7/18
f 14/11/32 15/10/31 9/7/18
f 10/8/19 15/10/31 13/12/33
f 11/9/34 10/8/19 13/12/35
f 17/3/3 21/2/36 20/1/37
f 16/4/4 17/3/5 20/1/38
f 22/5/39 21/2/40 17/3/5
f 18/6/7 22/5/39 17/3/5
f 19/3/11 23/2/41 22/5/42
f 18/6/12 19/3/11 22/5/42
f 20/1/43 23/2/44 19/3/17
f 16/4/14 20/1/45 19/3/11
f 21/2/40 25/8/46 24/7/47
f 20/1/48 21/2/40 24/7/47
f 26/9/49 25/8/46 21/2/40
f 22/5/39 26/9/49 21/2/40
f 23/2/41 27/8/50 26/9/51
f 22/5/42 23/2/41 26/9/51
f 24/7/52 27/8/50 23/2/41
f 20/1/45 24/7/52 23/2/41
f 24/7/52 29/11/27 30/10/53
f 27/8/50 24/7/52 30/10/53
f 27/8/50 30/10/53 28/12/54
f 26/9/55 27/8/50 28/12/56
f 30/10/57 29/11/32 24/7/47
f 25/8/46 30/10/57 24/7/47
f 28/12/58 30/10/57 25/8/46
f 26/9/59 28/12/58 25/8/46
f 2/3/3 32/2/36 31/1/37
f 2/3/5 31/1/38 1/4/4
f 2/3/5 3/6/7 33/5/39
f 2/3/5 33/5/39 32/2/40
f 4/3/11 34/2/41 33/5/42
f 4/3/11 33/5/42 3/6/12
f 4/3/11 1/4/14 31/1/45
f 4/3/17 31/1/43 34/2/44
f 32/2/40 36/8/46 35/7/47
f 32/2/40 35/7/47 31/1/48
f 32/2/40 33/5/39 37/9/49
f 32/2/40 37/9/49 36/8/46
f 34/2/41 38/8/50 37/9/51
f 34/2/41 37/9/51 33/5/42
f 34/2/41 31/1/45 35/7/52
f 34/2/41 35/7/52 38/8/50
f 41/10/53 38/8/50 35/7/52
f 41/10/53 35/7/52 40/11/27
f 38/8/50 41/10/53 39/12/54
f 38/8/50 39/12/56 37/9/55
f 35/7/47 36/8/46 41/10/57
f 35/7/47 41/10/57 40/11/32
f 39/12/58 41/10/57 36/8/46
f 39/12/58 36/8/46 37/9/59
f 42/1/1 43/2/2 17/3/3
f 42/1/1 17/3/5 16/4/4
f 17/3/5 43/2/8 44/5/6
f 17/3/5 44/5/6 18/6/7
f 44/5/9 45/2/10 19/3/11
f 44/5/9 19/3/11 18/6/12
f 19/3/17 45/2/15 42/1/16
f 19/3/11 42/1/13 16/4/14
f 46/7/18 47/8/19 43/2/8
f 46/7/18 43/2/8 42/1/20
f 43/2/8 47/8/19 48/9/21
f 43/2/8 48/9/21 44/5/6
f 48/9/22 49/8/23 45/2/10
f 48/9/22 45/2/10 44/5/9
f 45/2/10 49/8/23 46/7/24
f 45/2/10 46/7/24 42/1/25
f 52/10/26 51/11/27 46/7/24
f 52/10/26 46/7/24 49/8/23
f 50/12/28 52/10/26 49/8/23
f 50/12/30 49/8/23 48/9/29
f 46/7/18 51/11/32 52/10/31
f 46/7/18 52/10/31 47/8/19
f 47/8/19 52/10/31 50/12/33
f 47/8/19 50/12/35 48/9/34
